<?xml version="1.0" standalone="no"?>
<!DOCTYPE svg PUBLIC "-//W3C//DTD SVG 20010904//EN"
 "http://www.w3.org/TR/2001/REC-SVG-20010904/DTD/svg10.dtd">
<svg version="1.0" xmlns="http://www.w3.org/2000/svg"
 width="241.000000pt" height="241.000000pt" viewBox="0 0 241.000000 241.000000"
 preserveAspectRatio="xMidYMid meet">
<metadata>
Created by potrace 1.14, written by Peter Selinger 2001-2017
</metadata>
<g transform="translate(0.000000,241.000000) scale(0.100000,-0.100000)"
fill="#000000" stroke="none">
<path d="M965 2172 c-12 -1 -34 -14 -49 -27 l-29 -25 22 -51 c27 -61 25 -91
-7 -96 -43 -6 -54 -28 -48 -89 3 -30 9 -60 12 -66 4 -6 0 -16 -8 -22 -30 -23
-112 -132 -134 -179 -12 -27 -34 -62 -49 -77 -32 -33 -46 -86 -32 -120 5 -14
11 -65 12 -115 3 -107 11 -154 32 -215 56 -153 170 -230 345 -230 43 0 78 -3
79 -7 0 -5 2 -70 4 -146 l3 -138 -31 -19 c-27 -17 -33 -17 -58 -4 -61 31 -116
7 -152 -67 -29 -61 -29 -138 1 -178 16 -23 17 -31 6 -66 -7 -22 -13 -53 -13
-68 -1 -16 -5 -26 -11 -22 -6 4 -23 8 -38 11 -45 7 -4 -12 64 -30 109 -28 288
-35 411 -16 91 14 253 60 253 72 0 5 5 6 10 3 6 -3 10 -1 10 5 0 6 4 9 9 6 5
-3 12 2 15 11 5 11 10 14 14 7 11 -17 194 109 272 185 66 66 127 142 99 126
-7 -5 -27 -24 -44 -43 -63 -73 -150 -153 -220 -202 -97 -67 -98 -67 -119 -27
-18 32 -18 35 -1 67 33 63 18 172 -31 226 -38 42 -111 51 -161 19 -12 -8 -24
-11 -27 -7 -3 5 -23 14 -45 22 -24 8 -42 21 -46 34 -3 11 -9 82 -12 156 l-5
135 33 12 c81 30 186 145 225 248 28 74 26 243 -4 349 -45 158 -130 292 -224
354 -30 20 -46 38 -45 50 2 28 -23 81 -42 86 -9 2 -29 3 -46 2 -35 -3 -46 9
-36 38 12 32 2 89 -20 111 -18 19 -86 27 -144 17z"/>
<path d="M409 407 c26 -28 31 -32 31 -19 0 4 -13 16 -28 26 l-27 19 24 -26z"/>
<path d="M451 373 c0 -5 19 -24 42 -43 l42 -34 -40 42 c-40 43 -46 47 -44 35z"/>
<path d="M540 296 c0 -2 8 -10 18 -17 15 -13 16 -12 3 4 -13 16 -21 21 -21 13z"/>
<path d="M612 245 c20 -14 40 -25 45 -25 4 0 -9 11 -29 25 -20 14 -40 25 -45
25 -4 0 9 -11 29 -25z"/>
<path d="M670 210 c0 -6 7 -10 15 -10 8 0 15 2 15 4 0 2 -7 6 -15 10 -8 3 -15
1 -15 -4z"/>
<path d="M760 167 c14 -8 27 -12 30 -10 7 6 -23 23 -40 23 -8 0 -4 -6 10 -13z"/>
</g>
</svg>
